<?xml version="1.0" encoding="UTF-8" standalone="no"?><!DOCTYPE svg PUBLIC "-//W3C//DTD SVG 1.1//EN" "http://www.w3.org/Graphics/SVG/1.1/DTD/svg11.dtd"><svg width="100%" height="100%" viewBox="0 0 285 351" version="1.1" xmlns="http://www.w3.org/2000/svg" xmlns:xlink="http://www.w3.org/1999/xlink" xml:space="preserve" xmlns:serif="http://www.serif.com/" style="fill-rule:evenodd;clip-rule:evenodd;stroke-linecap:round;stroke-linejoin:round;stroke-miterlimit:1.5;"><g id="house2"><path d="M14.123,169.624c4.937,0 45.147,-34.293 50.648,-39.794c5.533,-5.533 18.905,-4.434 25.324,-10.853c26.937,-26.937 80.204,-34.983 108.531,-63.31c7.235,-7.236 25.324,-3.618 32.559,-10.853c3.665,-3.665 51.016,-27.133 52.457,-27.133" style="fill:none;stroke:#242424;stroke-width:2.5px;"/><path d="M19.55,173.242c0,-5.39 37.957,-21.677 45.221,-28.942c21.947,-21.946 70.218,-37.659 90.442,-57.883c11.734,-11.733 32.696,-10.989 43.413,-21.706c13.558,-13.558 37.802,-16.096 52.456,-30.75c1.834,-1.834 24.052,-10.853 19.898,-10.853" style="fill:none;stroke:#242424;stroke-width:2.5px;"/><path d="M17.741,171.433c0,-3.623 62.303,-34.769 83.207,-45.221c29.521,-14.761 79.863,-41.878 97.678,-59.692c8.622,-8.622 24.882,-8.602 32.559,-16.28c7.987,-7.987 29.387,-28.941 41.604,-28.941" style="fill:none;stroke:#242424;stroke-width:2.5px;"/><path d="M280.024,21.299c0,7.911 -5.264,66.764 -7.235,68.736c-1.426,1.425 5.426,114.754 5.426,130.237c0,24.329 -3.618,48.551 -3.618,70.545c0,9.923 -1.808,19.489 -1.808,27.133c0,0.87 -0.616,9.66 1.808,7.235c3.088,-3.087 -1.02,-46.009 1.809,-48.839c7.512,-7.511 0,-36.991 0,-47.03c0,-27.777 -4.211,-136.257 -14.471,-146.516c-9.23,-9.231 7.227,-61.493 9.045,-63.31c0.979,-0.979 3.391,-20.124 5.426,-18.089c0.652,0.652 0,53.856 0,59.692c0,22.446 -4.357,194.287 -9.044,198.974c-1.906,1.906 8.197,73.201 5.427,75.971c-0.479,0.479 -4.682,0 -5.427,0c-3.214,0 -12.608,-7.182 -14.471,-9.044c-6.953,-6.953 -82.486,12.662 -95.869,12.662c-0.603,0 -1.382,-0.426 -1.809,0c-5.059,5.059 -28.915,1.809 -37.985,1.809c-14.712,0 -103.774,10.184 -112.149,1.809c-0.705,-0.705 0,-6.132 0,-7.236c0,-12.194 5.939,-91.467 10.853,-101.295c5.657,-11.314 0,-46.206 0,-57.883l0,-12.662l0,10.853c0,7.284 1.071,48.507 -1.809,54.265c-10.383,20.767 -1.396,100.883 -12.662,112.149c-0.281,0.282 -0.281,6.953 0,7.235c0.282,0.282 6.954,0.282 7.236,0c9.31,-9.31 46.852,-10.853 59.692,-10.853c9.992,0 108.746,8.829 113.957,3.618c3.397,-3.397 83.002,-9.044 95.869,-9.044" style="fill:none;stroke:#242424;stroke-width:2.5px;"/><path d="M113.61,343.274c0,-20.586 1.809,-43.939 1.809,-66.928c0,-0.603 -0.427,-1.382 0,-1.809c2.935,-2.935 24.328,0 28.941,0c4.036,0 22.756,-2.568 25.324,0c2.534,2.534 5.055,68.737 -3.617,68.737" style="fill:none;stroke:#242424;stroke-width:2.5px;"/><path d="M32.212,303.479c0,-10.889 1.628,-54.085 5.426,-57.883c5.125,-5.125 23.817,3.316 28.942,-1.809c1.206,-1.206 20.566,-8.376 25.324,-3.618c3.212,3.212 -10.853,43.947 -10.853,52.457l0,3.618c-0.903,0.902 -7.628,0 -9.045,0c-12.59,0 -28.197,1.808 -37.985,1.808" style="fill:none;stroke:#242424;stroke-width:2.5px;"/><path d="M196.817,294.435c0,-14.286 -2.965,-69.39 3.618,-75.972c3.994,-3.994 29.824,5.427 39.794,5.427c0.603,0 1.383,-0.427 1.809,0c8.672,8.671 -6.052,63.935 -9.044,66.927c-3.195,3.195 -27.795,-1.809 -34.368,-1.809" style="fill:none;stroke:#242424;stroke-width:2.5px;"/><path d="M198.626,289.008c-2.412,0 -1.809,0 -1.809,-1.809c0,-3.397 -7.805,-44.651 -3.618,-48.839c5.125,-5.125 2.111,-18.39 7.236,-23.515c1.61,-1.61 17.584,4.122 21.706,0c0.181,-0.18 5.246,-0.18 5.426,0c2.22,2.22 18.75,35.517 12.662,41.604c-3.077,3.077 -9.044,10.372 -9.044,14.471c0,2.875 6.193,26.366 1.809,30.75c-6.962,6.962 -36.177,-0.459 -36.177,-7.235" style="fill:none;stroke:#242424;stroke-width:2.5px;"/><path d="M196.817,294.435c0,-16.274 1.482,-81.072 7.235,-86.825c2.646,-2.645 1.522,6.661 1.809,7.235c1.534,3.068 5.445,7.254 7.236,9.045c0.426,0.426 1.206,0 1.808,0c3.17,0 17.881,-2.017 19.898,0c1.054,1.054 1.054,24.269 0,25.324c-7.585,7.584 -9.508,51.993 -16.28,45.221c-4.446,-4.446 -13.703,-5.427 -21.706,-5.427" style="fill:none;stroke:#242424;stroke-width:2.5px;"/><path d="M32.212,299.861c30.414,0 45.501,-0.28 61.501,-16.279c4.339,-4.34 -6.797,-32.121 -10.853,-36.177c-1.758,-1.758 -1.809,-7.236 -1.809,-7.236c0,0 -1.206,2.412 -1.809,3.618c-1.793,3.585 -32.458,14.572 -39.795,7.235c-3.76,-3.76 -1.809,39.272 -1.809,48.839" style="fill:none;stroke:#242424;stroke-width:2.5px;"/><path d="M34.021,301.67c16.294,0 38.777,6.444 48.839,-3.618c5.951,-5.951 -0.458,-44.763 7.235,-52.456c2.174,-2.174 1.809,-9.044 1.809,-9.044c0,0 2.984,9.677 0,12.662c-7.735,7.734 -45.421,-8.845 -50.648,-3.618c-3.919,3.919 2.11,17.787 -1.809,21.706c-3.464,3.464 -10.405,36.177 -1.809,36.177" style="fill:none;stroke:#242424;stroke-width:2.5px;"/><path d="M17.741,180.477c7.177,0 19.897,-14.569 19.897,-19.897c0,-1.907 1.809,-5.427 1.809,-5.427l0,5.427c0,6.437 -1.585,18.312 1.809,21.706c1.92,1.92 14.012,-19.438 14.471,-19.897c6.416,-6.417 21.706,2.127 21.706,-10.853c0,-2.697 3.618,-7.236 3.618,-7.236l0,5.427c0,4.47 -1.22,21.117 -3.618,23.515c-2.31,2.31 -1.809,-7.926 -1.809,-9.044c0,-4.963 -1.032,-18.866 1.809,-21.706c0.822,-0.822 2.186,29.318 3.618,30.75c1.613,1.614 3.617,-0.266 3.617,-1.809c0,-6.845 8.797,-28.446 12.662,-36.177c0.808,-1.615 3.749,-8.913 5.427,-7.235c6.029,6.029 -2.412,26.53 3.618,32.559c2.495,2.495 1.808,-4.786 1.808,-5.427c0,-6.148 3.618,-18.088 3.618,-18.088c0,0 -0.46,4.078 -1.809,5.427c-2.751,2.751 -9.044,21.107 -9.044,23.515l0,5.426l0,-7.235c0,-5.938 1.913,-32.664 3.618,-34.368c2.036,-2.037 2.649,20.737 3.617,21.706c3.573,3.572 10.778,-30.675 12.662,-32.559c2.163,-2.163 0.679,24.193 1.809,25.323c2.983,2.983 12.212,-29.391 14.471,-27.132c7.537,7.537 -7.537,37.684 0,45.221c0.879,0.879 10.853,-33.186 10.853,-37.986l0,-5.426l0,9.044c0,11.335 0,45.221 -5.426,50.647c-1.206,1.206 -3.618,3.618 -3.618,3.618l0,-9.044c0,-17.321 1.809,-32.959 1.809,-50.648l0,-10.853l0,32.559c0,1.416 -1.159,6.911 1.809,5.427c12.949,-6.475 11.027,-41.778 19.897,-50.648c2.806,-2.806 5.426,17.307 5.426,19.898c0,9.543 1.809,21.81 1.809,32.559c0,0.745 -0.479,4.947 0,5.426c0.921,0.921 3.618,-9.512 3.618,-10.853c0,-4.086 4.292,-31.425 5.426,-32.559c1.349,-1.348 1.809,-5.427 1.809,-5.427l0,5.427c0,12.497 -3.617,25.164 -3.617,34.368c0,1.348 -1.809,3.618 -1.809,3.618c0,0 -0.365,-6.871 1.809,-9.044c8.372,-8.373 2.293,-34.853 10.853,-43.413c1.076,-1.077 3.162,9.486 3.617,10.853c2.593,7.778 5.169,34.627 0,39.795c-1.705,1.705 0,7.235 0,7.235c0,0 -0.473,-4.87 0,-7.235c3.781,-18.901 9.045,-40.684 9.045,-59.692c0,-2.486 1.809,-7.235 1.809,-7.235l0,10.853c0,20.777 -3.618,42.841 -3.618,61.5c0,3.075 -1.809,9.045 -1.809,9.045l0,-9.045c0,-20.111 5.427,-36.572 5.427,-56.074c0,-3.074 1.808,-9.044 1.808,-9.044c0,0 0.649,7.374 1.809,10.853c4.092,12.276 0,33.484 0,47.03l0,9.044c0,0 0.837,-6.127 1.809,-9.044c3.884,-11.653 9.044,-30.757 9.044,-41.603c0,-7.45 1.809,-9.283 1.809,-16.28c0,-0.641 -0.686,-7.922 1.809,-5.427c4.288,4.288 -3.618,49.372 -3.618,52.457l0,9.044l0,-10.853c0,-18.25 5.427,-34.002 5.427,-52.456l0,-9.045c0,0 1.809,5.97 1.809,9.045l0,52.456l0,-9.044c0,-4.137 4.944,-32.921 7.235,-39.795c1.16,-3.479 1.809,-10.853 1.809,-10.853c0,0 -0.572,3.711 0,5.427c1.084,3.252 1.078,4.312 1.809,7.235c1.11,4.442 3.124,41.851 3.617,41.604c8.329,-4.165 10.854,-37.826 10.854,-48.839c0,-3.075 1.808,-9.045 1.808,-9.045l0,7.236c0,14.483 -1.808,43.412 -1.808,43.412l0,-9.044c0,-10.729 3.617,-25.371 3.617,-36.177l0,-5.427l0,43.413l0,-7.236c0,-5.406 -1.809,-17.066 -1.809,-25.323l0,-5.427l0,7.235c0,11.17 2.945,28.48 -1.808,37.986c-1.079,2.157 0,7.236 0,7.236l0,-7.236l0,-39.794c0,-1.907 -1.809,-5.427 -1.809,-5.427l0,12.662c0,18.627 -5.427,40.658 -5.427,56.074c0,6.344 -1.809,10.41 -1.809,16.28c0,2.486 -1.809,9.721 -1.809,7.235c0,-14.455 -3.614,-39.801 1.809,-50.647c1.618,-3.236 0,-10.854 0,-10.854l0,9.045c0,12.699 3.618,24.309 3.618,34.368l0,3.617l0,-10.853c0,-10.615 -3.659,-27.173 -9.044,-32.559c-0.427,-0.426 -1.27,-0.27 -1.809,0c-4.231,2.116 -9.044,28.821 -9.044,36.177l0,5.427l0,-7.236c0,-8.773 3.063,-31.304 -1.809,-36.177c-5.673,-5.672 -11.987,8.369 -12.662,9.045c-4.77,4.769 -16.28,30.916 -16.28,34.368c0,0.896 -2.457,4.777 -3.617,3.617c-0.355,-0.354 -0.222,-23.736 5.426,-18.088c1.417,1.417 5.097,25.653 9.044,21.706c7.946,-7.945 14.595,-20.021 21.707,-27.133c1.906,-1.906 3.617,-7.235 3.617,-7.235l0,7.235c0,4.928 -0.779,51.678 0,52.457c10.281,10.28 9.044,-29.905 9.044,-36.177l0,-3.618c2.496,-2.495 1.809,4.786 1.809,5.427c0,3.575 5.511,23.43 7.236,21.706c4.886,-4.886 -5.827,-60.493 -7.236,-63.31c-1.111,-2.223 -1.809,-7.235 -1.809,-7.235l-1.808,5.426c0,0 7.674,-24.885 0,-32.559c-1.327,-1.326 -4.857,0.67 -5.427,1.809c-4.359,8.718 -18.497,21.123 -21.706,30.75c-0.198,0.594 -3.635,9.027 -5.427,7.236c-3.919,-3.919 2.111,-17.787 -1.808,-21.706c-0.818,-0.818 -10.702,-11.005 -7.236,-14.471c13.828,-13.828 43.412,-7.636 43.412,-9.044c0,-1.349 1.809,-3.618 1.809,-3.618l0,7.235c0,9.703 -1.921,27.02 3.618,32.56c2.663,2.662 4.866,-11.54 5.427,-12.662c4.923,-9.848 3.617,-29.21 3.617,-39.795c0,-2.486 1.809,-7.235 1.809,-7.235l0,39.794c0,7.01 -1.994,21.521 1.809,25.324c4.496,4.496 5.426,-29.23 5.426,-43.412l0,-5.427l0,9.044c0,12.435 -3.617,31.295 -3.617,47.031l0,9.044c0,0 1.809,-25.31 1.809,-37.986l0,-5.427c0,0 -1.629,22.248 1.808,32.56c1.507,4.519 -1.129,11.532 1.809,14.47c5.274,5.274 5.427,-21.706 5.427,-21.706l0,7.236c0,12.199 -5.427,25.562 -5.427,36.177c0,1.906 -1.809,5.426 -1.809,5.426l1.809,-25.324c0,0 1.809,8.399 1.809,12.662" style="fill:none;stroke:#242424;stroke-width:2.5px;"/><path d="M211.288,256.449c2.893,0 8.519,0 5.426,0c-2.486,0 -7.235,-1.809 -7.235,-1.809l25.324,0c0,0 -23.503,-7.248 -30.751,0c-1.783,1.784 36.251,1.809 16.28,1.809" style="fill:none;stroke:#242424;stroke-width:2.5px;"/><path d="M220.332,241.978c0,4.854 0,14.096 0,9.044c0,-2.379 -1.353,-18.088 1.809,-18.088l0,25.324c0,0 2.052,-20.141 -1.809,-16.28c-2.294,2.294 -3.618,15.179 -3.618,19.897l0,5.427l3.618,-37.986l0,7.236c0,11.103 -1.809,26.186 -1.809,34.368" style="fill:none;stroke:#242424;stroke-width:2.5px;"/><path d="M53.918,272.729c2.48,0 19.604,-0.294 18.088,-1.809c-4.263,-4.264 -18.088,0 -18.088,0l27.133,-3.618c0,0 -14.08,7.235 -21.706,7.235l-5.427,0c0,0 18.088,4.251 18.088,-1.808" style="fill:none;stroke:#242424;stroke-width:2.5px;"/><path d="M68.389,254.64c0,9.452 -1.809,18.059 -1.809,25.324l0,5.426l1.809,-25.323l-3.618,25.323l5.427,-23.515l0,34.369l0,-27.133c0,0 -3.618,10.721 -3.618,16.279" style="fill:none;stroke:#242424;stroke-width:2.5px;"/></g></svg>