<?xml version="1.0" encoding="UTF-8" standalone="no"?><!DOCTYPE svg PUBLIC "-//W3C//DTD SVG 1.1//EN" "http://www.w3.org/Graphics/SVG/1.1/DTD/svg11.dtd"><svg width="100%" height="100%" viewBox="0 0 399 774" version="1.1" xmlns="http://www.w3.org/2000/svg" xmlns:xlink="http://www.w3.org/1999/xlink" xml:space="preserve" xmlns:serif="http://www.serif.com/" style="fill-rule:evenodd;clip-rule:evenodd;stroke-linecap:round;stroke-linejoin:round;stroke-miterlimit:1.5;"><g id="house1"><path d="M42.853,757.674c0,-9.167 4.08,-58.345 9.045,-63.31c2.424,-2.425 1.809,6.365 1.809,7.236c0,11.117 -7.236,32.559 -7.236,32.559c0,0 -0.051,-5.478 -1.809,-7.236c-4.816,-4.816 3.618,-52.088 3.618,-59.692c0,-1.906 1.809,-5.426 1.809,-5.426c0,0 2.132,6.912 0,9.044c-6.328,6.328 -8.076,31.591 -12.662,36.177c-1.758,1.758 -1.809,7.236 -1.809,7.236l0,-12.662c0,-19.743 5.427,-37.003 5.427,-54.266l0,-9.044l0,32.559l0,-7.235c0,-15.605 3.617,-28.403 3.617,-41.604l0,-9.044l-5.426,32.559c0,0 -1.618,-7.617 0,-10.853c5.721,-11.443 7.235,-30.778 7.235,-45.221l0,-9.044l0,5.426c0,6.192 -2.369,24.076 -5.426,27.133c-0.954,0.953 -1.809,3.618 -1.809,3.618l0,-12.662l0,-48.839l0,-9.044c0,0 -1.206,1.206 -1.809,1.809c-3.447,3.446 -1.809,21.157 -1.809,27.132l0,5.427l0,-27.133l0,21.706c0,0 0.461,-4.078 1.809,-5.426c6.968,-6.968 3.618,-28.854 3.618,-36.177l0,-7.236l-3.618,12.662c0,0 -10.288,-15.036 -5.427,-19.897c1.508,-1.507 5.728,-0.301 7.236,-1.809c10.108,-10.108 18.467,-27.512 28.941,-37.986c2.132,-2.131 5.427,-7.235 5.427,-7.235l-18.089,18.088c0,0 2.166,-6.14 3.618,-9.044c7.484,-14.968 22.661,-26.278 34.368,-37.986c0.374,-0.373 8.415,-11.482 9.044,-10.853c1.504,1.504 -3.335,3.336 -3.617,3.618c-3.487,3.486 -36.177,29.448 -36.177,30.75c0,1.206 2.539,0.54 3.618,0c7.633,-3.816 12.588,-15.024 19.897,-19.897c22.307,-14.872 36.088,-32.47 52.456,-48.839c2.73,-2.73 7.236,-9.044 7.236,-9.044c0,0 -3.295,5.104 -5.427,7.235c-10.901,10.902 -33.723,31.914 -45.221,43.413c-0.953,0.953 -3.618,1.809 -3.618,1.809c0,0 1.711,-5.329 3.618,-7.236c6.37,-6.37 39.924,-45.221 41.604,-45.221c1.806,0 -3.46,6.88 -3.618,7.235c-0.761,1.707 -13.156,15.786 -12.662,16.28c1.914,1.914 5.976,-7.785 7.235,-9.044c8.469,-8.469 17.839,-16.03 25.324,-23.515c1.537,-1.538 3.618,-5.427 3.618,-5.427l0,3.618c0,4.861 -7.235,12.662 -7.235,12.662c0,0 3.617,-3.253 3.617,-5.427c0,-8.137 28.173,-34.368 28.942,-34.368c1.862,0 2.27,-3.156 3.617,-1.809c0.603,0.603 -0.956,1.809 -1.808,1.809c-4.308,0 -11.229,13.038 -14.471,16.28c-15.285,15.284 -31.568,22.854 -48.839,34.368c-3.365,2.243 -10.853,5.426 -10.853,5.426c0,0 4.823,-4.823 7.235,-7.235c19.126,-19.125 40.795,-42.604 57.883,-59.692c2.73,-2.73 7.236,-9.044 7.236,-9.044c0,0 -2.665,0.855 -3.618,1.809c-8.003,8.003 -13.781,24.074 -23.515,28.941c-2.412,1.206 -3.618,7.236 -3.618,7.236c0,0 3.618,-1.913 3.618,-3.618c0,-7.003 15.86,-15.44 19.897,-23.515c0.849,-1.698 7.954,-14.471 10.853,-14.471l0,5.427c0,7.555 -10.151,16.685 -12.661,21.706c-0.603,1.206 -1.809,3.618 -1.809,3.618c0,0 2.08,-3.89 3.617,-5.427c10.578,-10.578 15.837,-29.624 28.942,-36.177c0.763,-0.381 1.809,-1.809 1.809,-1.809c0,0 -0.051,5.478 -1.809,7.236c-8.336,8.335 -17.199,20.817 -25.324,28.941c-0.953,0.953 -1.809,3.618 -1.809,3.618c0,0 4.506,-6.314 7.236,-9.044c8.297,-8.297 16.041,-25.086 23.515,-32.56c2.411,-2.411 -0.603,-10.25 1.808,-12.662c2.479,-2.478 5.956,9.574 7.236,10.854c9.933,9.932 12.808,25.47 21.706,34.368c2.296,2.296 3.618,9.044 3.618,9.044l0,-5.427c0,-4.96 -9.294,-14.72 -12.662,-18.088c-0.954,-0.954 -1.809,-3.618 -1.809,-3.618c0,0 0.169,7.573 1.809,10.853c7.214,14.429 8.872,32.388 19.897,43.413c4.119,4.119 1.525,-9.329 0,-10.854c-2.59,-2.589 -13.342,-32.111 -16.279,-37.985c-1.206,-2.412 -3.618,-7.236 -3.618,-7.236l0,7.236c0,21.861 18.399,43.723 30.75,56.074c6.002,6.002 8.521,7.759 9.044,7.235c4.854,-4.853 -10.081,-27.399 -12.661,-32.559c-0.603,-1.206 -1.809,-3.618 -1.809,-3.618c0,0 2.365,18.02 7.235,25.324c10.933,16.4 26.672,32.099 41.604,47.03c2.193,2.194 16.523,21.462 18.088,19.898c0.603,-0.603 -1.206,-1.206 -1.809,-1.809c-4.413,-4.414 -13.572,-27.146 -16.279,-32.559c-0.548,-1.096 -4.436,-7.236 -5.427,-7.236c-2.486,0 0.051,5.478 1.809,7.236c0.853,0.852 -0.853,2.765 0,3.617c8.676,8.677 21.262,19.453 30.75,28.942c0.603,0.603 1.206,2.412 1.809,1.809c2.659,-2.659 -20.706,-28.75 -23.515,-34.368c-0.603,-1.206 -1.809,-3.618 -1.809,-3.618l0,7.235c0,16.395 17.966,22.426 23.515,30.751c0.661,0.991 12.662,10.413 12.662,7.235c0,-6.22 -10.346,-12.155 -12.662,-14.471c-1.788,-1.788 -9.219,-14.295 -10.853,-12.662c-8.624,8.624 23.661,45.221 28.942,45.221c0.603,0 1.382,0.427 1.809,0c4.551,-4.551 -18.505,-29.773 -19.898,-32.559c-0.842,-1.684 -1.187,-3.617 -3.617,-3.617c-1.809,0 -1.809,0.602 -1.809,-1.809c0,-1.349 -1.809,-3.618 -1.809,-3.618l0,9.044c0,0.603 -0.426,1.383 0,1.809c4.511,4.512 27.122,54.276 36.177,45.221c6.44,-6.439 -18.856,-24.556 -14.471,-28.941c0.853,-0.853 2.412,0 3.618,0c2.699,0 3.963,3.963 5.426,5.426c7.368,7.368 13.745,20.981 21.706,28.942c0.181,0.181 1.387,4.04 3.618,1.809c3.537,-3.537 -16.732,-13.115 -18.088,-14.471c-0.603,-0.603 -1.809,-1.809 -1.809,-1.809c0,0 4.078,0.461 5.426,1.809c5.692,5.691 32.849,23.804 21.707,12.662c-2.425,-2.425 -1.809,6.365 -1.809,7.235c0,10.864 -1.809,19.687 -1.809,30.751l0,7.235l0,-21.706c0,-0.426 0.674,-6.101 -1.809,-3.618c-1.279,1.279 0,3.618 0,5.427c0,21.97 -3.618,41.985 -3.618,63.309l0,19.898c0,3.617 0,14.47 0,10.853c0,-18.122 -3.617,-35.629 -3.617,-52.457c0,-3.074 -1.809,-9.044 -1.809,-9.044c0,0 0.972,8.481 1.809,12.662c2.134,10.673 9.047,66.931 12.662,70.545c4.499,4.5 3.617,-9.217 3.617,-10.853c0,-9.533 4.161,-31.474 0,-39.795c-1.375,-2.75 -1.809,-9.044 -1.809,-9.044l0,12.662c0,14.501 -4.355,40.129 1.809,52.456c2.779,5.558 7.236,9.579 7.236,1.809l0,-5.426l0,5.426c0,6.69 -1.809,15.694 -1.809,23.515c0,35.241 -0.661,50.648 -1.809,50.648c-0.667,0 -7.662,-28.515 -10.853,-25.324c-6.77,6.77 3.618,42.93 3.618,28.942c0,-7.76 -2.096,7.235 3.617,7.235l1.809,0c1.206,0 2.765,-0.853 3.618,0c1.737,1.738 -9.779,8.704 -10.853,10.853c-2.966,5.932 -3.618,10.78 -3.618,19.898l0,7.235l0,-5.427c0,-8.423 -0.808,-18.896 -5.427,-23.515c-0.281,-0.281 0.932,-8.167 -1.808,-5.426c-0.1,0.1 11.607,11.607 12.662,12.662c1.02,1.02 -1.906,23.612 -3.618,25.324c-0.52,0.52 -78.58,-1.809 -88.634,-1.809c-45.397,0 -100.04,-9.044 -148.325,-9.044c-5.482,0 -55.462,0.612 -56.074,0c-5.19,-5.19 -39.433,-5.427 -47.031,-5.427" style="fill:none;stroke:#242424;stroke-width:2.5px;"/><path d="M182.135,763.1c0,-6.046 -3.626,-50.639 -1.809,-52.456c0.853,-0.853 2.412,0 3.618,0c6.995,0 17.572,3.618 28.941,3.618c5.186,0 22.495,-4.638 25.324,-1.809c2.609,2.609 -1.716,12.847 0,16.279c4.908,9.817 6.907,41.604 -1.809,41.604" style="fill:none;stroke:#242424;stroke-width:2.5px;"/><path d="M80.839,728.732c0,-23.954 10.999,-77.635 39.795,-48.839c3.618,3.618 18.088,-3.617 21.706,0c3.618,3.618 -3.618,18.089 0,21.707c1.12,1.119 7.003,21.938 3.618,25.323c-8.839,8.839 -52.38,0.077 -57.883,-5.426c-2.495,-2.495 4.785,-1.809 5.426,-1.809l1.809,0c1.896,0 37.113,-0.936 36.177,0c-4.894,4.894 -31.805,7.235 -41.603,7.235l-9.045,0c0,0 6.348,1.349 9.045,0c11.783,-5.891 28.126,-5.426 43.412,-5.426c2.479,0 19.603,0.294 18.088,1.809c-1.575,1.575 -5.426,0.006 -5.426,-1.809c0,-12.153 -3.618,-23.574 -3.618,-37.986l0,-9.044c0,0 -18.008,3.618 -27.133,3.618c-3.747,0 -21.13,-2.385 -23.515,0c-5.984,5.984 -5.217,21.288 -9.044,28.941c-2.04,4.08 -12.713,18.038 -7.235,23.515c0.44,0.44 5.06,-3.251 5.426,-3.618c7.753,-7.753 0.296,-27.428 7.236,-34.368c0.953,-0.953 1.809,-3.617 1.809,-3.617c0,0 -1.706,5.53 0,7.235c1.189,1.19 3.251,-5.06 3.617,-5.426c1.758,-1.758 1.809,-7.236 1.809,-7.236c0,0 -1.809,21.74 -1.809,16.28" style="fill:none;stroke:#242424;stroke-width:2.5px;"/><path d="M267.151,726.923c12.057,0 -6.216,-51.667 3.617,-61.5c1.964,-1.964 26.936,9.044 32.56,9.044l7.235,0c0,0 -15.212,-1.438 -21.706,1.809c-3.155,1.577 -22.678,8.073 -27.133,3.617c-3.197,-3.197 17.109,-4.447 18.089,-5.426c2.528,-2.529 34.962,-1.214 37.985,1.809c3.854,3.853 0,31.93 0,37.986l0,7.235l0,-23.515l0,5.426c0,8.045 5.427,23.515 5.427,23.515c0,0 -2.664,0.856 -3.618,1.809c-4.404,4.404 -26.517,-1.809 -32.559,-1.809c-1.206,0 -2.765,0.853 -3.618,0c-4.631,-4.631 -19.323,-1.808 -30.75,-1.808" style="fill:none;stroke:#242424;stroke-width:2.5px;"/><path d="M265.342,707.026c0,-10.268 30.75,-1.809 30.75,-1.809l-10.853,1.809c0,0 33.787,-1.809 25.324,-1.809" style="fill:none;stroke:#242424;stroke-width:2.5px;"/><path d="M288.857,674.467c0,13.314 12.662,20.709 12.662,32.559l0,9.044c0,0 -0.104,-4.573 -1.809,-5.426c-4.47,-2.235 -7.208,-12.635 -10.853,-16.28c-0.853,-0.852 0,-3.617 0,-3.617l0,5.426c0,8.462 6.622,18.089 1.809,18.089" style="fill:none;stroke:#242424;stroke-width:2.5px;"/><path d="M122.443,712.453c0,-10.096 -3.618,-21.028 -3.618,-10.853c0,2.411 -1.025,3.617 1.809,3.617" style="fill:none;stroke:#242424;stroke-width:2.5px;"/><path d="M93.501,701.6c4.459,0 8.715,1.808 10.853,1.808l7.236,0c3.385,0 3.129,0.488 5.426,-1.808c3.041,-3.041 12.191,-1.809 18.089,-1.809c3.872,0 -3.876,5.426 0,5.426" style="fill:none;stroke:#242424;stroke-width:2.5px;"/><path d="M118.825,719.688c7.856,0 -4.114,-39.298 -7.235,-36.177c-6.597,6.597 10.853,11.174 10.853,21.706" style="fill:none;stroke:#242424;stroke-width:2.5px;"/><path d="M91.692,640.099c0,-20.986 -4.22,-41.001 0,-45.221c4.629,-4.629 28.781,1.647 30.751,3.617c6.29,6.29 26.511,1.188 32.559,7.236c0.161,0.16 5.427,33.815 5.427,37.985l0,9.045c0,0 -2.093,-2.855 -3.618,-3.618c-14.003,-7.002 -31.299,-6.605 -47.03,-14.471c-13.436,-6.718 -7.863,7.236 -10.853,7.236c-1.36,0 -3.387,3.848 -5.427,1.808c-3.875,-3.875 -9.749,-39.09 -3.617,-45.221c6.427,-6.427 60.927,-7.809 68.736,0c0.426,0.427 0,1.206 0,1.809c0,5.907 13.618,38.838 10.853,41.604c-10.117,10.116 -37.271,0 -48.839,0c-5.513,0 -20.393,1.313 -23.515,-1.809c-1.575,-1.575 -0.007,-5.427 1.809,-5.427" style="fill:none;stroke:#242424;stroke-width:2.5px;"/><path d="M192.988,638.29c0,-3.936 -13.022,-44.861 -7.236,-50.648c1.396,-1.396 4.981,4.98 5.427,5.427c3.137,3.137 9.892,4.466 12.662,7.235c7.838,7.838 39.192,-7.838 47.03,0c6.365,6.365 11.184,16.943 16.28,27.133c12.487,24.975 -71.196,17.438 -75.972,12.662c-1.816,-1.816 -1.809,-11.435 -1.809,-14.471c0,-1.715 -1.092,-9.761 0,-10.853c5.728,-5.728 6.934,-15.978 12.662,-21.706c3.814,-3.814 16.944,2.473 18.089,3.617c6.761,6.762 43.412,-11.127 43.412,41.604c0,0.696 -1.023,10.067 -1.809,10.853c-0.695,0.695 -12.296,-2.53 -14.471,-3.618c-9.717,-4.858 -54.265,1.585 -54.265,-7.235" style="fill:none;stroke:#242424;stroke-width:2.5px;"/><path d="M288.857,641.908c0,-9.313 -5.427,-22.318 -5.427,-34.368c0,-18.989 10.186,-3.618 28.942,-3.618c5.794,0 32.745,-5.24 34.368,-3.618c0.708,0.708 7.609,48.465 5.426,50.648c-2.752,2.752 -22.808,0 -27.132,0c-7.651,0 -28.259,2.492 -32.56,-1.809c-2.384,-2.385 0,-19.768 0,-23.515c0,-6.459 -1.819,-23.505 1.809,-27.133c2.201,-2.201 18.248,0 21.706,0c6.019,0 26.997,-1.945 30.751,1.809c0.426,0.426 0,1.206 0,1.809c0,5.382 4.429,58.881 1.809,61.501c-8.603,8.603 -36.591,-9.459 -39.795,-12.662c-7.68,-7.68 -25.324,-6.396 -25.324,-18.089" style="fill:none;stroke:#242424;stroke-width:2.5px;"/><path d="M98.928,569.554c0,-17.894 7.969,-35.102 16.279,-43.413c0.282,-0.282 0.282,-6.953 0,-7.235c-0.216,-0.216 -5.426,6.324 -5.426,7.235c0,12.719 -1.967,25.483 -7.236,30.751c-2.173,2.174 -1.808,9.044 -1.808,9.044l0,-5.427c0,-5.876 7.523,-25.036 3.617,-28.941c-5.542,-5.543 -9.044,21.706 -9.044,21.706c0,0 1.023,-4.877 1.809,-7.235c3.063,-9.19 5.477,-21.757 10.853,-27.133c1.279,-1.279 10.653,0 12.662,0c8.201,0 23.515,7.235 23.515,7.235l7.235,0c6.718,0 17.792,-1.808 27.133,-1.808c1.416,0 8.142,-0.903 9.044,0l0,3.617c-5.929,11.859 -17.452,31.923 -25.324,39.795c-0.426,0.426 0.427,1.382 0,1.809c-6.12,6.12 -40.444,-14.471 -48.838,-14.471c-3.075,0 -9.045,-1.809 -9.045,-1.809l7.236,0c8.64,0 17.747,-0.17 25.324,3.618c1.617,0.809 5.426,0 5.426,0c0,0 -3.809,-0.809 -5.426,0c-6.391,3.195 -17.105,3.617 -23.515,3.617" style="fill:none;stroke:#242424;stroke-width:2.5px;"/><path d="M200.223,574.98c0,-5.127 -1.921,-29.054 -5.426,-32.559c-1.508,-1.507 1.507,-7.537 0,-9.044c-2.306,-2.306 -3.464,23.361 1.809,18.088c3.142,-3.143 1.808,-13.928 1.808,-19.897l0,-3.618c0,0 0.957,1.809 1.809,1.809c12.424,0 23.814,1.809 37.986,1.809c2.88,0 16.255,-1.833 18.089,0c2.527,2.528 -2.598,6.447 -1.809,7.235c2.978,2.979 11.88,-3.372 14.47,1.809c1.442,2.883 1.973,32.396 0,34.368c-1.464,1.465 -12.17,0 -14.47,0c-2.701,0 -20.181,8.761 -25.324,3.618c-5.06,-5.06 -27.7,-10.853 -36.177,-10.853c-1.36,0 -3.387,-3.849 -5.427,-1.809c-0.039,0.039 28.259,5.427 23.515,5.427" style="fill:none;stroke:#242424;stroke-width:2.5px;"/><path d="M285.239,578.598c2.356,0 7.05,-38.171 1.809,-43.412c-1.705,-1.706 0,-7.236 0,-7.236l0,3.618c0,7.649 15.66,5.426 23.515,5.426c5.054,0 37.719,-3.884 41.603,0c1.508,1.508 5.078,31.1 1.809,34.369c-6.42,6.42 -13.477,-20.891 -19.897,-14.471c-4.65,4.65 -4.53,13.574 -9.044,18.088c-4.037,4.037 -33.451,0 -39.795,0l-3.618,0l10.853,0c17.613,0 29.7,-3.617 47.031,-3.617l9.044,0l-5.427,0c-3.762,0 -12.646,3.617 -19.897,3.617l-5.427,0c0,-2.866 23.729,-9.044 27.133,-9.044" style="fill:none;stroke:#242424;stroke-width:2.5px;"/><path d="M80.839,524.333c0,-9.173 16.183,-65.022 21.706,-70.546c7.243,-7.242 8.844,-23.114 12.662,-30.75c0.973,-1.944 3.618,-5.426 3.618,-5.426l0,9.044c0,10.706 -2.661,47.986 -12.662,37.986c-18.443,-18.444 57.876,-86.818 70.545,-99.487c3.33,-3.33 9.044,-10.853 9.044,-10.853l0,5.426c0,5.076 -5.115,12.041 -7.235,16.28c-8.379,16.759 -29.041,36.377 -37.986,54.265c-6.722,13.446 -23.763,30.999 -34.368,41.604c-0.783,0.783 -5.017,2.218 -3.618,3.618c0.427,0.426 1.27,0.269 1.809,0c10.223,-5.111 10.658,-28.746 19.898,-37.986c9.257,-9.258 28.95,-39.812 36.177,-54.266c2.917,-5.835 23.023,-23.515 25.323,-23.515c0.853,0 1.809,-1.808 1.809,-1.808l0,14.47c0,9.109 3.904,30.179 0,37.986c-3.142,6.284 -7.235,23.827 -7.235,30.751c0,4.883 -0.834,27.966 -3.618,30.75c-0.953,0.953 -1.809,3.618 -1.809,3.618c0,0 -3.505,-16.505 0,-23.515c8.643,-17.286 10.563,-37.406 19.898,-56.075c4.091,-8.182 7.1,-16.009 10.853,-23.515c0.852,-1.705 1.809,-5.426 1.809,-5.426l0,12.662c0,20.756 -13.929,40.702 -18.089,61.501c-0.635,3.178 -2.349,28.307 0,27.132c2.969,-1.484 1.809,-6.319 1.809,-9.044c0,-18.661 6.707,-45.445 12.662,-63.31c1.245,-3.734 8.262,-35.15 9.044,-34.368c7.597,7.597 -4.927,103.603 12.662,121.193c4.733,4.733 7.236,-24.729 7.236,-92.251l0,-14.471c1.38,0 3.611,5.414 3.617,5.427c11.783,25.923 24.296,52.21 36.177,75.971c5.192,10.385 15.846,23.081 23.515,30.751c1.587,1.586 5.649,5.648 7.236,7.235c0.953,0.953 4.965,1.809 3.617,1.809c-2.695,0 -10.101,-20.202 -10.853,-21.706c-9.087,-18.175 -25.292,-34.305 -32.559,-48.839c-0.972,-1.945 -3.618,-5.427 -3.618,-5.427c0,0 3.117,8.693 5.427,12.662c11.385,19.566 22.052,41.95 36.177,56.074c1.042,1.043 10.854,16.279 12.662,14.471c9.638,-9.638 -14.471,-44.902 -14.471,-52.456c0,-2.174 -3.618,-5.427 -3.618,-5.427c0,0 1.151,10.154 3.618,14.471c7.369,12.895 40.81,61.501 52.456,61.501c1.863,0 2.27,3.156 3.618,1.809c2.798,-2.798 -14.329,-19.512 -16.279,-21.707c-7.099,-7.985 -16.185,-18.183 -16.28,-18.088c-11.647,11.647 25.607,41.745 3.618,30.75c-2.786,-1.393 -3.008,-3.617 -5.427,-3.617c-2.72,0 -8.154,-2.718 -10.853,-3.618c-22.215,-7.405 -43.704,-24.565 -63.31,-34.368c-7.157,-3.579 -22.47,-11.617 -27.132,-16.28c-0.954,-0.953 -3.618,-1.809 -3.618,-1.809c0,0 2.645,3.482 3.618,5.427c5.799,11.6 7.55,23.83 14.47,30.75c0.441,0.441 3.03,11.441 5.427,9.045c5.848,-5.848 -9.483,-43.852 -10.853,-45.222c-3.508,-3.508 -3.336,3.336 -3.618,3.618c-7.004,7.004 -6.848,21.319 -14.471,28.942c-0.953,0.953 -3.617,1.808 -3.617,1.808c0,0 -1.809,-2.269 -1.809,-3.617c0,-19.948 -3.618,-40.372 -3.618,-61.501c0,-1.801 -1.041,-5.427 -1.809,-5.427c-2.371,0 -7.168,21.505 -7.235,21.707c-6.69,20.068 -12.607,28.886 -23.515,39.794c-0.446,0.446 -3.887,6.967 -7.236,3.618c-9.99,-9.99 -5.426,-43.146 -5.426,-57.883c0,-2.611 -1.744,-16.345 0,-18.089c1.362,-1.361 1.809,23.599 1.809,25.324c0,11.514 -5.704,48.839 -18.089,48.839c-0.457,0 1.212,-47.627 3.618,-45.221c18.955,18.955 -69.76,112.933 -88.634,94.06c-9.361,-9.362 10.993,-58.022 14.471,-61.501c17.789,-17.789 25.537,21.493 43.413,3.618c15.447,-15.447 38.62,-22.341 48.838,-32.559c0.954,-0.954 1.809,-3.618 1.809,-3.618l0,7.235c0,10.252 -1.809,25.5 -1.809,32.559c0,2.412 -2.411,7.236 0,7.236c0.853,0 1.428,-1.046 1.809,-1.809c12.945,-25.89 29.831,-66.927 30.751,-66.927c1.712,0 5.054,28.517 5.426,30.75c2.382,14.288 5.69,29.205 14.471,37.986c8.755,8.754 30.75,-39.946 30.75,-48.839c0,-0.603 -0.426,-1.383 0,-1.809c2.033,-2.033 9.045,-9.644 9.045,-12.662c0,-1.988 1.504,-2.865 3.617,-1.809c11.309,5.655 16.559,65.258 30.751,72.354c15.014,7.507 16.044,-57.883 9.044,-57.883l0,9.044c0,13.659 5.304,23.393 14.471,32.56c5.056,5.056 28.786,5.426 25.324,5.426" style="fill:none;stroke:#242424;stroke-width:2.5px;"/><path d="M93.501,439.317c-6.135,0 -0.638,-9.683 -3.617,-12.662c-8.983,-8.983 -9.045,-48.949 -9.045,-65.119l0,-10.853l0,5.427c0,7.9 1.809,10.188 1.809,18.088c0,0.87 -0.616,9.66 1.809,7.236c8.653,-8.653 -6.164,-60.764 3.618,-70.545c9.748,-9.748 39.091,7.939 48.839,-1.809c0.953,-0.954 3.617,-1.809 3.617,-1.809c0,0 1.809,7.185 1.809,10.853c0,11.839 5.18,38.479 0,48.839c-3.15,6.299 -5.426,13.566 -5.426,19.897" style="fill:none;stroke:#242424;stroke-width:2.5px;"/><path d="M109.781,292.8c-32.13,0 12.879,-45.004 25.324,-32.559c13.853,13.853 -15.104,33.735 -27.133,21.706c-11.294,-11.294 25.835,-24.813 32.559,-18.089c13.402,13.402 -19.095,42.406 -27.132,34.369c-18.592,-18.592 2.626,-66.928 23.515,-66.928l0,9.044c0,5.696 -37.361,22.332 -45.222,14.471c-12.155,-12.155 -1.817,-52.448 7.236,-61.501c3.058,-3.058 14.542,-5.498 16.279,-7.235c0.367,-0.367 4.897,-4.147 7.236,-1.809c16.783,16.784 -13.621,65.968 -25.324,54.266c-15.627,-15.628 -13.104,-70.545 12.662,-70.545c3.431,0 8.139,-0.905 10.853,1.808c28.519,28.519 -25.986,55.412 -36.177,45.222c-5.723,-5.724 -17.037,-56.37 -12.662,-65.119c4.583,-9.166 37.174,-20.709 47.03,-10.853c24.65,24.65 -24.205,53.575 -30.75,47.03c-8.927,-8.927 -10.434,-63.729 -1.809,-72.354c0.446,-0.446 7.021,-3.832 7.235,-3.618c1.784,1.784 3.018,17.479 1.809,19.898c-30.251,60.502 -56.243,-17.92 -48.839,-25.324c5.604,-5.604 15.195,-3.98 21.706,-7.236c6.581,-3.29 22.361,-3.29 28.942,0c41.326,20.664 -44.68,76.513 -54.266,66.928c-5.852,-5.852 -0.115,-20.129 -3.617,-27.133c-25.103,-50.206 83.207,-62.7 83.207,-36.177c0,1.104 0.705,6.531 0,7.236c-7.035,7.035 -13.873,18.492 -23.515,21.706c-7.506,2.502 -34.336,14.503 -41.604,7.235c-28.268,-28.268 -16.162,-79.589 32.56,-79.589c5.225,0 16.292,-1.796 19.897,1.809c11.676,11.676 -18.1,30.151 -25.324,32.559c-32.291,10.764 -83.207,27.369 -83.207,-21.706c0,-10.537 0.603,-24.119 7.235,-30.751c1.9,-1.899 15.723,-18.645 21.707,-12.662c1.611,1.612 -0.443,15.837 -1.809,14.471c-3.69,-3.69 10.231,-25.888 12.662,-30.75c1.405,-2.811 3.811,-10.756 10.853,-7.236c4.175,2.088 17.995,29.036 10.853,36.177c-2.713,2.714 -6.331,4.522 -9.044,7.236c-0.567,0.566 -6.279,6.383 -7.236,5.426c-4.22,-4.22 2.412,-19.294 -1.809,-23.515c-0.979,-0.979 -4.748,-18.767 -1.809,-21.706c6.315,-6.314 29.825,-8.161 36.177,-1.809c24.813,24.813 -44.409,60.504 -54.265,50.648c-18.031,-18.031 49.612,-57.11 63.31,-43.412c15.205,15.205 -57.883,110.476 -57.883,43.412c0,-9.035 10.853,-17.019 10.853,-23.515" style="fill:none;stroke:#242424;stroke-width:2.5px;"/></g></svg>