<?xml version="1.0" encoding="UTF-8" standalone="no"?><!DOCTYPE svg PUBLIC "-//W3C//DTD SVG 1.1//EN" "http://www.w3.org/Graphics/SVG/1.1/DTD/svg11.dtd"><svg width="100%" height="100%" viewBox="0 0 223 182" version="1.1" xmlns="http://www.w3.org/2000/svg" xmlns:xlink="http://www.w3.org/1999/xlink" xml:space="preserve" xmlns:serif="http://www.serif.com/" style="fill-rule:evenodd;clip-rule:evenodd;stroke-linecap:round;stroke-linejoin:round;stroke-miterlimit:1.5;"><g id="jobboard"><path d="M1.25,124.252c0,-21.755 9.044,-31.872 9.044,-52.457c0,-3.074 1.809,-9.044 1.809,-9.044l0,3.618c0,9.519 -2.52,23.839 -5.426,32.559c-0.787,2.358 -1.809,7.235 -1.809,7.235c0,0 1.809,-2.269 1.809,-3.618c0,-12.461 1.808,-30.042 1.808,-45.221l0,-12.662l-5.426,34.368c0,0 0.434,-6.294 1.809,-9.044c4.663,-9.326 6.048,-63.931 9.044,-66.927c1.193,-1.193 14.57,2.763 16.28,3.618c5.537,2.768 18.908,0 25.323,0c12.026,0 23.739,-3.618 32.56,-3.618c2.486,0 7.235,-1.809 7.235,-1.809c0,0 -7.04,3.618 -10.853,3.618c-2.725,0 -16.827,8.496 -18.088,7.235c-3.833,-3.833 -15.342,-9.044 -23.516,-9.044c-3.667,0 -10.853,-1.809 -10.853,-1.809c0,0 5.012,0.697 7.236,1.809c13.568,6.784 36.703,3.618 54.265,3.618l9.044,0l-9.044,0c-13.652,0 -38.015,-1.78 -45.221,5.426c-2.558,2.558 -10.853,0 -10.853,0l9.044,0c12.182,0 50.805,2.635 59.692,-1.809c3.926,-1.963 12.662,-3.617 12.662,-3.617c0,0 -16.519,-1.57 -21.706,3.617c-0.463,0.463 -7.362,1.682 -5.427,3.618c4.773,4.773 44.321,3.618 56.075,3.618c2.486,0 7.235,-1.809 7.235,-1.809l-5.426,0c-4.21,0 -18.741,-6.079 -10.854,1.809c2.569,2.568 21.288,0 25.324,0c5.945,0 25.431,1.701 28.942,-1.809c2.303,-2.304 -6.64,-2.404 -7.236,-1.809c-2.424,2.425 6.366,1.809 7.236,1.809c8.314,0 12.257,-1.405 16.279,-5.427c0.181,-0.181 5.246,-0.181 5.427,0c0.955,0.956 -10.853,36.872 -10.853,41.604l0,7.235l1.809,-32.559l0,9.044c0,11.441 1.809,25.258 1.809,37.986l0,3.618l1.808,-34.369l0,66.928l0,-12.662c0,0 3.838,12.442 0,16.28c-2.593,2.593 -5.476,10.853 -1.808,10.853c0.369,0 6.277,-13.621 5.426,-14.471c-1.833,-1.833 -15.208,0 -18.088,0c-6.135,0 -58.814,8.166 -59.692,9.044c-3.461,3.46 -25.548,3.618 -30.751,3.618l-7.235,0l25.324,0l-5.427,0l-27.132,0c-7.358,0 -33.418,-0.859 -37.986,-5.427c-1.649,-1.649 -13.689,0 -16.28,0l-27.133,0l-7.235,0l10.853,0c17.306,0 34.242,-1.809 50.648,-1.809c10.615,0 107.723,2.617 112.148,-1.808c2.979,-2.979 58.678,3.617 43.413,3.617" style="fill:none;stroke:#242424;stroke-width:2.5px;"/><path d="M19.338,117.016l-1.808,0" style="fill:none;stroke:#242424;stroke-width:2.5px;"/><path d="M8.485,117.016c0,5.785 -3.907,28.652 -1.808,30.751c2.482,2.482 1.808,-3.192 1.808,-3.618c0,-8.596 7.236,-16.087 7.236,-23.515c0,-1.416 -0.903,-8.142 0,-9.044c0.627,-0.628 1.809,23.232 1.809,27.132l0,1.809l0,-14.471c0,0 1.279,4.148 0,5.427c-1.139,1.139 -6.977,14.471 -9.045,14.471c-7.838,0 0,-23.515 0,-23.515l0,43.412c0,0 -1.705,-5.53 0,-7.235c3.62,-3.62 5.427,-25.117 5.427,-30.751l0,-3.617l0,5.426c0,10.684 -9.044,30.751 -9.044,30.751l0,-5.427c0,-4.491 -1.403,-37.58 9.044,-27.133c2.59,2.59 2.305,9.541 5.426,12.662c1.907,1.907 3.618,-7.235 3.618,-7.235l0,3.618c0,2.771 -1.809,2.41 -1.809,0c0,-7.658 -7.235,21.394 -7.235,10.853c0,-2.478 0,1.629 0,3.617" style="fill:none;stroke:#242424;stroke-width:2.5px;"/><path d="M200.223,117.016l0,19.898l0,-3.618c0,-8.527 3.618,-25.324 3.618,-25.324c0,0 0.21,23.305 -7.235,30.75c-1.279,1.279 0,5.427 0,5.427l5.426,-16.28c0,0 1.437,29.314 7.235,23.515c1.044,-1.044 5.811,-28.558 3.618,-30.75c-0.603,-0.603 -3.437,1.628 -3.618,1.809c-2.089,2.089 -5.426,13.549 -5.426,18.088l0,5.427l0,-3.618c0,-4.578 0.929,-25.324 -3.618,-25.324c-3.678,0 3.618,22.534 3.618,12.662" style="fill:none;stroke:#242424;stroke-width:2.5px;"/><path d="M30.192,48.28l0,-5.427c0,-1.417 2.333,-13.186 3.617,-14.47c1.465,-1.465 12.17,0 14.471,0c3.668,0 8.26,-4.403 10.853,-1.809c1.127,1.127 1.441,20.265 0,21.706c-2.627,2.627 -4.882,2.081 -9.044,0c-5.94,-2.97 -11.153,-5.427 -18.089,-5.427" style="fill:none;stroke:#242424;stroke-width:2.5px;"/><path d="M79.03,48.28c0,-32.435 26.442,-6.544 39.795,-19.897c1.758,-1.758 7.235,-1.809 7.235,-1.809c0,0 -0.697,5.012 -1.808,7.235c-5.268,10.536 0.27,19.898 -16.28,19.898c-1.104,0 -6.531,0.704 -7.235,0c-2.642,-2.642 -11.847,-7.236 -16.28,-7.236" style="fill:none;stroke:#242424;stroke-width:2.5px;"/><path d="M140.531,46.471c3.385,0 5.194,-16.047 7.236,-18.088c0.847,-0.848 5.06,3.251 5.426,3.617c2.412,2.412 8.441,1.206 10.853,3.618c2.714,2.713 13.567,-2.713 16.28,0c1.519,1.519 -1.527,5.145 -1.809,5.427c-2.347,2.347 -17.412,26 -28.941,14.47c-1.293,-1.292 -5.19,-5.426 -7.236,-5.426" style="fill:none;stroke:#242424;stroke-width:2.5px;"/><path d="M33.809,91.692c0,-0.405 9.105,-19.958 10.853,-21.706c3.005,-3.005 25.852,2.337 27.133,3.618c2.339,2.338 -1.442,6.869 -1.809,7.235c-6.911,6.911 1.28,16.28 -12.662,16.28l-12.662,0c-2.834,0 -1.809,-1.206 -1.809,-3.618" style="fill:none;stroke:#242424;stroke-width:2.5px;"/><path d="M88.075,97.119c0,-17.204 -3.376,-23.515 12.662,-23.515c1.715,0 9.76,-1.092 10.853,0l0,3.618c0,4.373 2.565,22.758 1.809,23.515c-2.223,2.222 -27.837,0 -25.324,0" style="fill:none;stroke:#242424;stroke-width:2.5px;"/><path d="M136.914,97.119c0,-3.747 -2.385,-21.13 0,-23.515c1.383,-1.383 36.442,0.266 37.985,1.809c2.684,2.684 -3.617,9.891 -3.617,12.662c0,4.298 0.409,10.443 -1.809,12.662c-0.87,0.869 -8.444,-4.827 -9.044,-5.427c-2.385,-2.385 -19.768,0 -23.515,0" style="fill:none;stroke:#242424;stroke-width:2.5px;"/><path d="M205.65,126.06c0,14.754 -5.427,28.994 -5.427,39.795c0,1.907 -1.809,5.427 -1.809,5.427l0,-9.045l0,-45.221l0,-7.235c0,0 1.809,3.52 1.809,5.426c0,11.674 5.427,23.973 5.427,36.177c0,2.528 1.727,12.744 3.617,10.853c3.349,-3.348 1.809,-25.439 1.809,-30.75l0,-5.427l0,34.369l0,-7.236c0,-7.644 -1.809,-17.21 -1.809,-27.133c0,-1.117 0.502,-11.354 -1.808,-9.044c-3.915,3.915 3.34,50.925 -1.809,56.075c-2.31,2.31 -1.809,-7.927 -1.809,-9.045l0,-34.368l0,-5.426c0,0 1.435,3.557 1.809,5.426c2.337,11.685 1.809,31.932 1.809,41.604l0,9.044l0,-7.235l0,-34.369l0,-5.426l0,3.618c0,6.412 3.617,18.911 3.617,25.323" style="fill:none;stroke:#242424;stroke-width:2.5px;"/><path d="M13.912,131.487c0,9.452 -1.809,18.059 -1.809,25.324l0,5.426c0,0 7.235,-21.706 0,-21.706c-8.527,0 -3.618,25.324 -3.618,25.324l1.809,-30.75l0,5.426c0,5.767 -3.67,32.507 0,36.177c2.171,2.171 1.809,-9.474 1.809,-10.853c0,-4.324 2.752,-24.381 0,-27.133c-2.495,-2.495 -1.809,4.786 -1.809,5.427l0,21.706c0,0 3.618,-22.849 3.618,-34.368l0,-5.427l0,9.045c0,12.161 1.809,23.39 1.809,36.177" style="fill:none;stroke:#242424;stroke-width:2.5px;"/></g></svg>